<svg width="643" height="520" viewBox="0 0 643 520" fill="none" xmlns="http://www.w3.org/2000/svg">
<path d="M140.783 159.336C136.25 167.465 135.041 181.257 166.471 171.398C165.086 169.387 168.662 165.891 194.048 167.989C197.668 166.341 207.703 164.716 218.885 171.398C224.55 169.689 279.169 218.96 305.771 243.809C321.637 255.784 339.845 268.353 285.749 222.832C231.653 177.31 213.912 117.656 211.803 93.5184C212.559 65.9853 175.442 77.0373 181.486 96.4416C156.931 78.8728 215.959 136.523 147.583 116.856C92.8829 101.123 94.5702 121.663 102.251 133.9C97.0886 145.525 92.4295 166.888 115.095 159.336C137.761 151.784 141.665 156.189 140.783 159.336Z" fill="#FF008A" stroke="black"/>
<path d="M253.005 305.557C256.324 305.794 266.328 308.757 276 315.157C268.651 313.024 251.884 305.352 246.604 307.69C240.159 310.545 251.41 319.708 253.005 321.024C255.376 322.979 264.384 330.624 269.125 327.957C269.884 327.531 276.254 319.328 261.841 314.624C255.85 312.668 248.656 310.004 251.884 312.668C254.902 315.157 266.499 326.033 263.436 321.024C258.932 313.659 267.466 318.535 267.466 322.446C267.466 329.813 253.556 318.179 249.052 312.135C245.448 307.299 258.457 311.601 263.436 314.09C265.411 315.276 271.875 316.295 273.392 325.113C275.289 336.135 258.695 330.802 245.419 316.401C234.799 304.881 245.735 304.075 253.005 305.557Z" fill="#EB01FF" stroke="black"/>
<path d="M436.879 298.535C432.422 298.763 418.988 301.612 406 307.766C415.869 305.715 438.384 298.338 445.474 300.587C454.129 303.331 439.02 312.143 436.879 313.408C433.696 315.288 421.599 322.639 415.232 320.074C414.213 319.664 405.658 311.777 425.013 307.254C433.059 305.373 442.72 302.812 438.384 305.373C434.332 307.766 418.758 318.224 422.872 313.408C428.92 306.326 417.46 311.014 417.46 314.775C417.46 321.858 436.139 310.672 442.188 304.86C447.027 300.211 429.557 304.347 422.872 306.741C420.219 307.88 411.539 308.86 409.502 317.339C406.955 327.938 429.239 322.809 447.066 308.963C461.327 297.886 446.641 297.111 436.879 298.535Z" fill="#EB01FF" stroke="black"/>
<path d="M335.571 336.688C279.792 332.287 263.282 287.179 262 265.175V250.788C262 215.921 265.206 217.641 266.809 222.86C268.411 244.723 272.002 279.308 273.541 242.748C275.464 197.048 287.966 255.866 279.311 273.215C272.386 287.094 291.813 308.054 302.392 316.8C315.054 320.89 345.092 327.802 363.942 322.724C387.503 316.376 393.274 313.414 408.661 275.754C420.971 245.626 420.843 263.201 419.24 275.754C414.592 297.899 391.35 341.088 335.571 336.688Z" fill="#EB01FF" stroke="black"/>
<path d="M335.571 346.725C279.792 342.851 263.282 303.141 262 283.77V271.104C262 240.409 265.206 241.924 266.809 246.518C268.411 265.765 272.002 296.212 273.541 264.026C275.464 223.794 287.966 275.574 279.311 290.847C272.386 303.066 291.813 321.518 302.392 329.217C315.054 332.818 345.092 338.902 363.942 334.432C387.503 328.844 393.274 326.237 408.661 293.083C420.971 266.559 420.843 282.031 419.24 293.083C414.592 312.578 391.35 350.599 335.571 346.725Z" fill="#FFC701" stroke="black"/>
<ellipse cx="341" cy="254.5" rx="71" ry="69.5" fill="#D2A48B"/>
<ellipse cx="341" cy="254.5" rx="65" ry="63.5" fill="black"/>
<path d="M450.28 271.251C446.487 270.931 435.054 266.943 424 258.327C432.399 261.199 451.561 271.526 457.595 268.379C464.961 264.536 452.102 252.2 450.28 250.429C447.571 247.797 437.275 237.506 431.857 241.096C430.99 241.67 423.709 252.712 440.182 259.045C447.029 261.678 455.251 265.263 451.561 261.678C448.113 258.327 434.858 243.686 438.359 250.429C443.507 260.344 433.753 253.78 433.753 248.515C433.753 238.598 449.651 254.259 454.798 262.396C458.916 268.905 444.049 263.114 438.359 259.763C436.101 258.168 428.714 256.795 426.98 244.925C424.813 230.087 443.778 237.267 458.95 256.652C471.087 272.16 458.588 273.245 450.28 271.251Z" fill="#FFF845" stroke="black"/>
<path d="M222.005 281.272C225.324 280.962 235.328 277.087 245 268.718C237.651 271.508 220.884 281.54 215.604 278.482C209.159 274.749 220.41 262.766 222.005 261.046C224.376 258.488 233.384 248.492 238.125 251.979C238.884 252.537 245.254 263.263 230.841 269.415C224.85 271.973 217.656 275.456 220.884 271.973C223.902 268.718 235.499 254.495 232.436 261.046C227.932 270.677 236.466 264.301 236.466 259.186C236.466 249.552 222.556 264.766 218.052 272.67C214.448 278.994 227.457 273.367 232.436 270.113C234.411 268.563 240.875 267.23 242.392 255.699C244.289 241.285 227.695 248.259 214.419 267.09C203.799 282.155 214.735 283.209 222.005 281.272Z" fill="#FFF845" stroke="black"/>
<path d="M115.633 279.214C118.573 279.305 127.433 280.445 136 282.907C129.491 282.086 114.641 279.135 109.964 280.035C104.255 281.133 114.221 284.657 115.633 285.163C117.733 285.915 125.712 288.855 129.911 287.83C130.583 287.666 136.225 284.511 123.459 282.701C118.153 281.949 111.781 280.925 114.641 281.949C117.313 282.907 127.585 287.09 124.872 285.163C120.882 282.33 128.441 284.206 128.441 285.71C128.441 288.543 116.121 284.069 112.131 281.744C108.94 279.884 120.462 281.539 124.872 282.496C126.621 282.952 132.347 283.344 133.69 286.736C135.37 290.975 120.672 288.924 108.914 283.385C99.5075 278.954 109.194 278.644 115.633 279.214Z" fill="#FFF845" stroke="black"/>
<path d="M237.178 275.353C224.203 282.382 183.011 280.353 152.178 279.853C197.178 284.353 157.678 279.954 136.678 297.853C119.878 312.173 152.345 309.82 170.678 306.853C201.678 310.187 271.878 314.853 304.678 306.853C337.478 298.853 311.345 297.52 294.178 297.853C221.178 293.687 103.378 286.353 216.178 290.353C357.178 295.353 281.178 271.353 267.178 271.353C255.978 271.353 280.511 226.353 294.178 203.853C296.845 198.599 310.378 187.943 343.178 187.353C384.178 186.616 379.178 207.853 389.178 212.353C399.178 216.853 408.178 261.353 408.178 271.353C408.178 281.353 377.678 279.853 445.178 285.353C499.178 289.754 437.345 287.187 399.678 285.353C370.511 284.353 311.178 285.453 307.178 297.853C347.345 291.853 413.078 282.553 354.678 293.353C296.278 304.154 322.678 306.853 343.178 306.853L519.678 293.353C554.478 293.353 545.178 271.353 519.678 275.353C492.178 275.353 468.493 275.238 452.178 271.353C431.178 266.353 424.178 270.853 408.178 235.853C403.778 213.053 384.178 187.687 367.678 180.353C348.845 173.853 304.378 173.853 281.178 207.853C252.178 250.353 273.178 255.853 237.178 275.353Z" fill="#00FFFF"/>
<path d="M227.32 277.015C213.094 284.448 167.93 282.303 134.124 281.774C183.463 286.533 140.154 281.881 117.129 300.81C98.7091 315.954 134.306 313.466 154.408 310.329C188.397 313.854 265.366 318.789 301.329 310.329C337.292 301.868 308.639 300.458 289.817 300.81C209.777 296.404 80.618 288.648 204.295 292.879C358.892 298.167 275.563 272.785 260.213 272.785C247.933 272.785 274.832 225.194 289.817 201.399C292.74 195.843 307.579 184.573 343.542 183.949C388.495 183.169 383.013 205.629 393.977 210.389C404.942 215.148 414.809 262.209 414.809 272.785C414.809 283.361 381.368 281.774 455.377 287.591C514.585 292.244 446.789 289.53 405.49 287.591C373.511 286.533 308.456 287.697 304.07 300.81C348.11 294.465 420.182 284.63 356.151 296.051C292.119 307.473 321.065 310.329 343.542 310.329L537.061 296.051C575.217 296.051 565.02 272.785 537.061 277.015C506.909 277.015 480.94 276.893 463.052 272.785C440.027 267.497 432.352 272.256 414.809 235.241C409.985 211.129 388.495 184.302 370.404 176.546C349.755 169.672 301 169.672 275.563 205.629C243.767 250.576 266.792 256.393 227.32 277.015Z" fill="#EBFF00" stroke="black"/>
<path d="M418.836 326.532C389.677 304.715 360.24 281.925 341 265.189C341 261.725 376.613 289.275 418.836 326.532C448.771 348.93 478.413 370.302 496.428 383.044C511.267 391.601 538.144 404.436 526.938 387.322C512.93 365.929 524.251 299.028 530.392 334.424C535.304 362.74 544.975 328.589 549.197 307.974C557.64 290.471 561.477 300.584 559.558 325.866C558.023 346.092 566.594 350.63 571.072 350.371C579.003 356.076 592.102 373.008 581.05 395.101C567.234 422.718 616.357 376.431 593.714 414.16C601.39 414.16 601.518 434.127 600.622 444.11C597.936 459.669 589.262 486.74 576.061 470.56C559.558 450.334 544.873 546.784 539.5 511C534.127 475.216 533.438 444.11 509.5 414.16C483.071 385.222 449.24 353.361 418.836 326.532Z" fill="#0029FF"/>
<path d="M341 265.189C379.991 299.106 460.865 357.891 496.428 383.044C511.267 391.601 538.144 404.436 526.938 387.322C512.93 365.929 524.251 299.028 530.392 334.424C535.304 362.74 544.975 328.589 549.197 307.974C557.64 290.471 561.477 300.584 559.558 325.866C558.023 346.092 566.594 350.63 571.072 350.371C579.003 356.076 592.102 373.008 581.05 395.101C567.234 422.718 616.357 376.431 593.714 414.16C601.39 414.16 601.518 434.127 600.622 444.11C597.936 459.669 589.262 486.74 576.061 470.56C559.558 450.334 544.873 546.784 539.5 511C534.127 475.216 533.438 444.11 509.5 414.16C446.369 345.036 341 259.23 341 265.189Z" stroke="black"/>
</svg>
