<svg width="690" height="698" viewBox="0 0 690 698" fill="none" xmlns="http://www.w3.org/2000/svg">
<path d="M61.4473 585.237C-14.886 537.57 -81.6527 459.737 261.947 529.737C605.547 599.737 271.447 595.903 61.4473 585.237Z" fill="#A59494"/>
<path d="M162.5 507.789L236 572.289V673.789H114L43 610.789V507.789H162.5Z" fill="#D9D9D9"/>
<path d="M637.5 484.789V636.789C555 652.289 348.6 673.989 183 636.789V484.789C382.6 -393.211 569.167 118.956 637.5 484.789Z" fill="#D9D9D9"/>
<ellipse cx="410" cy="410.289" rx="79" ry="80.5" fill="#131313"/>
<ellipse cx="410" cy="410.289" rx="79" ry="80.5" fill="#131313"/>
<path d="M378.5 460.289C407.667 453.623 463.3 428.689 452.5 382.289C487.3 445.889 417.667 460.789 378.5 460.289Z" fill="white"/>
<path d="M439 475.789C427 481.436 398.5 482.123 388 482.289C403.333 484.456 453 486.789 472.5 449.789C458.5 464.289 466.5 456.789 455.5 467.289L455.5 467.289C449 470.789 444.667 473.123 439 475.789Z" fill="white"/>
<path d="M114 569.789H236V673.789H114V569.789Z" fill="#EAEAEA"/>
<path d="M132 541.789L165 570.789H235.5L162 507.789V541.789H132Z" fill="white"/>
<path d="M113.5 571.789L43 508.789V610.289L113.5 673.789V571.789Z" fill="#A59494"/>
<path d="M80 542.789H104L131.5 570.289H113L80 542.789Z" fill="white"/>
<path d="M179.5 550.289C151.9 546.689 157.333 562.123 163.5 570.289H234.5L179.5 523.789C176.3 538.589 178.167 547.623 179.5 550.289Z" fill="#A59494"/>
<path d="M639.735 653.43C658.476 710.216 622.352 698.984 614.454 678.232L573.851 561.237C566.532 558.93 551.021 551.392 547.531 539.69C544.041 527.988 548.751 524.833 551.542 524.719L565.4 544.479L582.313 541.246L584.204 522.6L570.665 505.513C574.184 498.174 586.328 497.287 597.228 512.631C605.948 524.906 601.583 542.096 598.311 549.156L639.735 653.43Z" fill="#A59494"/>
<path d="M642.735 650.43C661.476 707.216 625.352 695.984 617.454 675.232L576.851 558.237C569.532 555.93 554.021 548.392 550.531 536.69C547.041 524.988 551.751 521.833 554.542 521.719L568.4 541.479L585.313 538.246L587.204 519.6L573.665 502.513C577.184 495.174 589.328 494.287 600.228 509.631C608.948 521.906 604.583 539.096 601.311 546.156L642.735 650.43Z" fill="#D9D9D9" stroke="white"/>
<path d="M571 503.289C560.2 491.289 571.833 493.623 579 496.289L596.5 518.289C599.333 529.623 604.9 560.589 594.5 555.789C584.1 550.989 608.167 611.123 621.5 641.789H602.5C573.425 590.646 570.094 566.447 572.625 558.313C569.827 560.633 562.785 558.24 548.5 537.289C530.5 510.889 547.666 519.956 558.5 527.789L579 551.289C556.997 519.235 563.649 510.041 576.5 511.147L571 503.289Z" fill="#A59494"/>
<path d="M639.735 650.43C658.476 707.216 622.352 695.984 614.454 675.232L573.851 558.237C566.532 555.93 551.021 548.392 547.531 536.69C544.041 524.988 548.751 521.833 551.542 521.719L565.4 541.479L582.313 538.246L584.204 519.6L570.665 502.513C574.184 495.174 586.328 494.287 597.228 509.631C605.948 521.906 601.583 539.096 598.311 546.156L639.735 650.43Z" fill="#D9D9D9"/>
</svg>
